<?xml version="1.0"?>
<svg xmlns="http://www.w3.org/2000/svg" id="Bold" enable-background="new 0 0 32 32" height="512px" viewBox="0 0 32 32" width="512px" class=""><g><path d="m26 32h-20c-3.314 0-6-2.686-6-6v-20c0-3.314 2.686-6 6-6h20c3.314 0 6 2.686 6 6v20c0 3.314-2.686 6-6 6z" fill="#f5e6fe" data-original="#F5E6FE" class="" data-old_color="#f5e6fe" style="fill:#F5E6FE"/><g fill="#d9a4fc"><path d="m20.112 18.558-1.91-1.878-7.015 6.917z" data-original="#000000" class="active-path" data-old_color="#000000" style="fill:#5F336C"/><path d="m20.112 13.445-8.925-5.038 7.015 6.916z" data-original="#000000" class="active-path" data-old_color="#000000" style="fill:#5F336C"/><path d="m22.909 16.951c.572-.447.572-1.454-.038-1.9l-1.872-1.066-2.088 2.016 2.088 2.016z" data-original="#000000" class="active-path" data-old_color="#000000" style="fill:#5F336C"/></g><path d="m9.356 24 8.156-8.001-8.156-7.998v-.001c-.413.213-.69.6-.69 1.104v13.793c.001.503.277.89.69 1.103z" fill="#be63f9" data-original="#BE63F9" class="" style="fill:#BAA6CE" data-old_color="#be63f9"/></g> </svg>
